%FSLAX44Y44*%
%MOMM*%
G71*
G01*
G75*
G04 Layer_Physical_Order=2*
G04 Layer_Color=16711680*
%ADD10R,0.9500X2.7500*%
%ADD11R,0.8000X0.9500*%
%ADD12R,0.9500X1.4500*%
%ADD13C,0.5000*%
%ADD14C,0.2500*%
%ADD15C,0.2000*%
%ADD16R,2.5000X2.5000*%
%ADD17C,2.5000*%
%ADD18C,0.6000*%
%ADD19R,3.7000X1.8000*%
%ADD20R,0.7500X0.9500*%
%ADD21O,0.4500X1.4000*%
%ADD22R,3.5800X2.9400*%
G36*
X1592500Y112500D02*
Y7500D01*
X1592500Y7500D01*
X7500Y7500D01*
Y7500D01*
Y112500D01*
X7500D01*
D01*
X7500D01*
X7500Y112500D01*
X1592500Y112500D01*
D02*
G37*
%LPC*%
G36*
X858000Y17500D02*
X853250D01*
Y12000D01*
X858000D01*
Y17500D01*
D02*
G37*
G36*
X850750D02*
X846000D01*
Y12000D01*
X850750D01*
Y17500D01*
D02*
G37*
G36*
X754000Y17250D02*
X749250D01*
Y11750D01*
X754000D01*
Y17250D01*
D02*
G37*
G36*
X749250Y25250D02*
Y19750D01*
X754000D01*
Y25250D01*
X749250D01*
D02*
G37*
G36*
X650750Y39697D02*
X649157Y39540D01*
X646424Y38711D01*
X643905Y37365D01*
X641697Y35553D01*
X639885Y33345D01*
X638539Y30826D01*
X637710Y28093D01*
X637553Y26500D01*
X650750D01*
Y39697D01*
D02*
G37*
G36*
X858000Y25500D02*
X853250D01*
Y20000D01*
X858000D01*
Y25500D01*
D02*
G37*
G36*
X850750D02*
X846000D01*
Y20000D01*
X850750D01*
Y25500D01*
D02*
G37*
G36*
X746750Y17250D02*
X742000D01*
Y11750D01*
X746750D01*
Y17250D01*
D02*
G37*
G36*
X1050000Y42082D02*
X1046667Y41754D01*
X1043463Y40782D01*
X1040510Y39203D01*
X1037921Y37079D01*
X1035797Y34490D01*
X1034218Y31537D01*
X1033246Y28333D01*
X1032918Y25000D01*
X1033246Y21667D01*
X1034218Y18463D01*
X1035797Y15510D01*
X1037921Y12921D01*
X1040510Y10797D01*
X1043463Y9218D01*
X1046667Y8246D01*
X1050000Y7918D01*
X1053333Y8246D01*
X1056537Y9218D01*
X1059490Y10797D01*
X1062079Y12921D01*
X1064203Y15510D01*
X1065782Y18463D01*
X1066754Y21667D01*
X1067082Y25000D01*
X1066754Y28333D01*
X1065782Y31537D01*
X1064203Y34490D01*
X1062079Y37079D01*
X1059490Y39203D01*
X1056537Y40782D01*
X1053333Y41754D01*
X1050000Y42082D01*
D02*
G37*
G36*
X550000D02*
X546667Y41754D01*
X543463Y40782D01*
X540510Y39203D01*
X537921Y37079D01*
X535797Y34490D01*
X534218Y31537D01*
X533246Y28333D01*
X532918Y25000D01*
X533246Y21667D01*
X534218Y18463D01*
X535797Y15510D01*
X537921Y12921D01*
X540510Y10797D01*
X543463Y9218D01*
X546667Y8246D01*
X550000Y7918D01*
X553333Y8246D01*
X556537Y9218D01*
X559490Y10797D01*
X562079Y12921D01*
X564203Y15510D01*
X565782Y18463D01*
X566754Y21667D01*
X567082Y25000D01*
X566754Y28333D01*
X565782Y31537D01*
X564203Y34490D01*
X562079Y37079D01*
X559490Y39203D01*
X556537Y40782D01*
X553333Y41754D01*
X550000Y42082D01*
D02*
G37*
G36*
X80000D02*
X76667Y41754D01*
X73463Y40782D01*
X70510Y39203D01*
X67921Y37079D01*
X65797Y34490D01*
X64218Y31537D01*
X63246Y28333D01*
X62918Y25000D01*
X63246Y21667D01*
X64218Y18463D01*
X65797Y15510D01*
X67921Y12921D01*
X70510Y10797D01*
X73463Y9218D01*
X76667Y8246D01*
X80000Y7918D01*
X83333Y8246D01*
X86537Y9218D01*
X89490Y10797D01*
X92079Y12921D01*
X94203Y15510D01*
X95782Y18463D01*
X96754Y21667D01*
X97082Y25000D01*
X96754Y28333D01*
X95782Y31537D01*
X94203Y34490D01*
X92079Y37079D01*
X89490Y39203D01*
X86537Y40782D01*
X83333Y41754D01*
X80000Y42082D01*
D02*
G37*
G36*
X1520000D02*
X1516667Y41754D01*
X1513463Y40782D01*
X1510510Y39203D01*
X1507921Y37079D01*
X1505797Y34490D01*
X1504218Y31537D01*
X1503246Y28333D01*
X1502918Y25000D01*
X1503246Y21667D01*
X1504218Y18463D01*
X1505797Y15510D01*
X1507921Y12921D01*
X1510510Y10797D01*
X1513463Y9218D01*
X1516667Y8246D01*
X1520000Y7918D01*
X1523333Y8246D01*
X1526537Y9218D01*
X1529490Y10797D01*
X1532079Y12921D01*
X1534203Y15510D01*
X1535782Y18463D01*
X1536754Y21667D01*
X1537082Y25000D01*
X1536754Y28333D01*
X1535782Y31537D01*
X1534203Y34490D01*
X1532079Y37079D01*
X1529490Y39203D01*
X1526537Y40782D01*
X1523333Y41754D01*
X1520000Y42082D01*
D02*
G37*
G36*
X791849Y14750D02*
X788250D01*
Y11151D01*
X788951Y11290D01*
X790605Y12395D01*
X791710Y14049D01*
X791849Y14750D01*
D02*
G37*
G36*
X666447Y24000D02*
X653250D01*
Y10803D01*
X654843Y10960D01*
X657576Y11789D01*
X660095Y13135D01*
X662303Y14947D01*
X664115Y17155D01*
X665461Y19674D01*
X666290Y22408D01*
X666447Y24000D01*
D02*
G37*
G36*
X650750D02*
X637553D01*
X637710Y22408D01*
X638539Y19674D01*
X639885Y17155D01*
X641697Y14947D01*
X643905Y13135D01*
X646424Y11789D01*
X649157Y10960D01*
X650750Y10803D01*
Y24000D01*
D02*
G37*
G36*
X653250Y39697D02*
Y26500D01*
X666447D01*
X666290Y28093D01*
X665461Y30826D01*
X664115Y33345D01*
X662303Y35553D01*
X660095Y37365D01*
X657576Y38711D01*
X654843Y39540D01*
X653250Y39697D01*
D02*
G37*
G36*
X753000Y107750D02*
X748500D01*
Y102250D01*
X753000D01*
Y107750D01*
D02*
G37*
G36*
X746000D02*
X741500D01*
Y102250D01*
X746000D01*
Y107750D01*
D02*
G37*
G36*
X799599Y102750D02*
X796000D01*
Y99151D01*
X796701Y99290D01*
X798355Y100395D01*
X799460Y102049D01*
X799599Y102750D01*
D02*
G37*
G36*
X851500Y108000D02*
X847000D01*
Y102500D01*
X851500D01*
Y108000D01*
D02*
G37*
G36*
X796000Y108849D02*
Y105250D01*
X799599D01*
X799460Y105951D01*
X798355Y107605D01*
X796701Y108710D01*
X796000Y108849D01*
D02*
G37*
G36*
X793500D02*
X792799Y108710D01*
X791145Y107605D01*
X790040Y105951D01*
X789901Y105250D01*
X793500D01*
Y108849D01*
D02*
G37*
G36*
X858500Y108000D02*
X854000D01*
Y102500D01*
X858500D01*
Y108000D01*
D02*
G37*
G36*
X816250Y109098D02*
X814299Y108710D01*
X812645Y107605D01*
X811540Y105951D01*
X811152Y104000D01*
X811540Y102049D01*
X812645Y100395D01*
X812936Y100201D01*
X812936Y97131D01*
X812814Y97314D01*
X811408Y98253D01*
X809750Y98583D01*
X808169Y98269D01*
X808311Y98482D01*
X808353Y98692D01*
X808564Y99750D01*
Y100201D01*
X808855Y100395D01*
X809960Y102049D01*
X810348Y104000D01*
X809960Y105951D01*
X808855Y107605D01*
X807201Y108710D01*
X805250Y109098D01*
X803299Y108710D01*
X801645Y107605D01*
X800540Y105951D01*
X800152Y104000D01*
X800540Y102049D01*
X801470Y100657D01*
X800907Y100093D01*
X800189Y99018D01*
X800147Y98808D01*
X799936Y97750D01*
X799936Y97131D01*
X799814Y97314D01*
X798408Y98253D01*
X796750Y98583D01*
X795092Y98253D01*
X793686Y97314D01*
X793564Y97131D01*
Y97131D01*
X793564Y97131D01*
Y97500D01*
X793311Y98768D01*
X792988Y99253D01*
X792988Y99253D01*
X793500Y99151D01*
Y102750D01*
X789901D01*
X789954Y102482D01*
X788780Y103657D01*
X788848Y104000D01*
X788460Y105951D01*
X787355Y107605D01*
X785701Y108710D01*
X783750Y109098D01*
X781799Y108710D01*
X780145Y107605D01*
X779951Y107314D01*
X774750D01*
X773482Y107061D01*
X772407Y106343D01*
X770378Y104314D01*
X767500D01*
Y107750D01*
X756000D01*
Y94250D01*
X767500D01*
Y97686D01*
X771750D01*
X772808Y97897D01*
X773018Y97939D01*
X774093Y98657D01*
X776123Y100686D01*
X779951D01*
X780145Y100395D01*
X781799Y99290D01*
X783750Y98902D01*
X784093Y98970D01*
X784662Y98402D01*
X783750Y98583D01*
X782092Y98253D01*
X780686Y97314D01*
X780500Y97036D01*
D01*
X780314Y97314D01*
X778908Y98253D01*
X778500Y98335D01*
Y89500D01*
X777250D01*
Y88250D01*
X772917D01*
Y84750D01*
X773247Y83092D01*
X774186Y81686D01*
X774743Y81314D01*
X764500D01*
Y89000D01*
X723500D01*
Y67000D01*
X764500D01*
Y74686D01*
X780100D01*
Y61250D01*
X819900D01*
Y74686D01*
X835500D01*
Y67000D01*
X876500D01*
Y89000D01*
X835500D01*
Y81314D01*
X835500Y81314D01*
X825257Y81314D01*
X825814Y81686D01*
X826753Y83092D01*
X827083Y84750D01*
Y88250D01*
X822750D01*
Y89500D01*
X821500D01*
Y98335D01*
X821092Y98253D01*
X819686Y97314D01*
X819564Y97131D01*
Y97131D01*
X819564Y97131D01*
Y100201D01*
X819855Y100395D01*
X820049Y100686D01*
X824128D01*
X825907Y98907D01*
X826982Y98189D01*
X827192Y98147D01*
X828250Y97936D01*
X832500D01*
Y94500D01*
X844000D01*
Y108000D01*
X832500D01*
Y104564D01*
X829623D01*
X827843Y106343D01*
X826768Y107061D01*
X826558Y107103D01*
X825500Y107314D01*
X820049D01*
X819855Y107605D01*
X818201Y108710D01*
X816250Y109098D01*
D02*
G37*
G36*
X824000Y98335D02*
Y90750D01*
X827083D01*
Y94250D01*
X826753Y95908D01*
X825814Y97314D01*
X824408Y98253D01*
X824000Y98335D01*
D02*
G37*
G36*
X776000D02*
X775592Y98253D01*
X774186Y97314D01*
X773247Y95908D01*
X772917Y94250D01*
Y90750D01*
X776000D01*
Y98335D01*
D02*
G37*
G36*
X819900Y58750D02*
X780100D01*
Y45314D01*
X764500D01*
Y53000D01*
X723500D01*
Y31000D01*
X740314Y31000D01*
D01*
X737877Y28564D01*
X706500D01*
Y39750D01*
X677500D01*
Y10750D01*
X706500D01*
Y21936D01*
X739250D01*
X740308Y22147D01*
X740518Y22189D01*
X741593Y22907D01*
X742000Y23314D01*
Y19750D01*
X746750D01*
Y25250D01*
X743936D01*
X746593Y27907D01*
X747311Y28982D01*
X747353Y29192D01*
X747564Y30250D01*
Y31000D01*
X764500D01*
Y38686D01*
X764500Y38686D01*
X764500Y38686D01*
X774743Y38686D01*
X774743D01*
X774186Y38314D01*
X773247Y36908D01*
X772917Y35250D01*
Y31750D01*
X777250D01*
Y29250D01*
X772917D01*
Y25750D01*
X773247Y24092D01*
X774186Y22686D01*
X775592Y21747D01*
X777250Y21417D01*
X778162Y21598D01*
X777593Y21030D01*
X777250Y21098D01*
X775299Y20710D01*
X773645Y19605D01*
X773451Y19314D01*
X772623D01*
X771093Y20843D01*
X770018Y21561D01*
X769808Y21603D01*
X768750Y21814D01*
X767500D01*
Y25250D01*
X755500D01*
Y11750D01*
X767500D01*
Y15064D01*
X767500D01*
X768907Y13657D01*
X769982Y12939D01*
X770192Y12897D01*
X771250Y12686D01*
X773451D01*
X773645Y12395D01*
X775299Y11290D01*
X777250Y10902D01*
X779201Y11290D01*
X780855Y12395D01*
X781960Y14049D01*
X782125Y14879D01*
X782290Y14049D01*
X783395Y12395D01*
X785049Y11290D01*
X785750Y11151D01*
Y16000D01*
X787000D01*
Y17250D01*
X791849D01*
X791710Y17951D01*
X790605Y19605D01*
X788951Y20710D01*
X787000Y21098D01*
X786679Y21034D01*
X786811Y21232D01*
X787064Y22500D01*
X787064Y22869D01*
X787186Y22686D01*
X788592Y21747D01*
X790250Y21417D01*
X791908Y21747D01*
X793314Y22686D01*
X793500Y22964D01*
D01*
X793686Y22686D01*
X795092Y21747D01*
X796750Y21417D01*
X798408Y21747D01*
X799814Y22686D01*
X799936Y22869D01*
Y21000D01*
X800147Y19942D01*
X800189Y19732D01*
X800907Y18657D01*
X805907Y13657D01*
X806982Y12939D01*
X807192Y12897D01*
X808250Y12686D01*
X809201D01*
X809395Y12395D01*
X811049Y11290D01*
X813000Y10902D01*
X814951Y11290D01*
X816605Y12395D01*
X817710Y14049D01*
X817875Y14879D01*
X818040Y14049D01*
X819145Y12395D01*
X820799Y11290D01*
X822750Y10902D01*
X824701Y11290D01*
X826355Y12395D01*
X826549Y12686D01*
X828500D01*
X829558Y12897D01*
X829768Y12939D01*
X830843Y13657D01*
X832500Y15314D01*
Y12000D01*
X844500D01*
Y25500D01*
X832500D01*
Y22064D01*
X831250D01*
X830192Y21853D01*
X829982Y21811D01*
X828907Y21093D01*
X827128Y19314D01*
X826549D01*
X826355Y19605D01*
X824701Y20710D01*
X822750Y21098D01*
X822407Y21030D01*
X821838Y21598D01*
X821838D01*
X822750Y21417D01*
X824408Y21747D01*
X825814Y22686D01*
X826753Y24092D01*
X827083Y25750D01*
Y29250D01*
X822750D01*
Y31750D01*
X827083D01*
Y35250D01*
X826753Y36908D01*
X825814Y38314D01*
X825257Y38686D01*
X835500D01*
Y31000D01*
X876500D01*
Y53000D01*
X835500D01*
Y45314D01*
X819900D01*
Y58750D01*
D02*
G37*
G36*
X746000Y99750D02*
X741500D01*
Y94250D01*
X746000D01*
Y99750D01*
D02*
G37*
G36*
X858500Y100000D02*
X854000D01*
Y94500D01*
X858500D01*
Y100000D01*
D02*
G37*
G36*
X851500D02*
X847000D01*
Y94500D01*
X851500D01*
Y100000D01*
D02*
G37*
G36*
X753000Y99750D02*
X748500D01*
Y94250D01*
X753000D01*
Y99750D01*
D02*
G37*
%LPD*%
D11*
X838500Y18750D02*
D03*
X852000D02*
D03*
X761500Y18500D02*
D03*
X748000D02*
D03*
D14*
X744250Y42000D02*
X790250D01*
X794500Y78000D02*
X796750Y80250D01*
X744000Y78000D02*
X794500D01*
X808250Y16000D02*
X813000D01*
X803250Y21000D02*
X808250Y16000D01*
X803250Y21000D02*
Y30500D01*
X812500Y78000D02*
X856000D01*
X831250Y18750D02*
X838500D01*
X828500Y16000D02*
X831250Y18750D01*
X822750Y16000D02*
X828500D01*
X816250Y22500D02*
X822750Y16000D01*
X816250Y22500D02*
Y30500D01*
X771250Y16000D02*
X777250D01*
X768750Y18500D02*
X771250Y16000D01*
X761500Y18500D02*
X768750D01*
X777250Y16000D02*
X783750Y22500D01*
Y30500D01*
X774750Y104000D02*
X783750D01*
X771750Y101000D02*
X774750Y104000D01*
X761750Y101000D02*
X771750D01*
X828250Y101250D02*
X838250D01*
X825500Y104000D02*
X828250Y101250D01*
X816250Y104000D02*
X825500D01*
X816250Y89500D02*
Y104000D01*
X790250Y89500D02*
Y97500D01*
X783750Y104000D02*
X790250Y97500D01*
X805250Y99750D02*
Y104000D01*
X803250Y97750D02*
X805250Y99750D01*
X803250Y89500D02*
Y97750D01*
X790250Y30500D02*
Y42000D01*
X809750Y30500D02*
Y42000D01*
X790250Y42000D02*
X856000D01*
X809750Y80750D02*
Y89500D01*
Y80750D02*
X812500Y78000D01*
X796750Y80250D02*
Y89500D01*
X692000Y25250D02*
X739250D01*
X744250Y30250D01*
Y42000D01*
D16*
X692000Y25250D02*
D03*
D17*
X652000D02*
D03*
D18*
X822750Y16000D02*
D03*
X777250D02*
D03*
X813000D02*
D03*
X783750Y104000D02*
D03*
X816250D02*
D03*
X805250D02*
D03*
X794750D02*
D03*
X787000Y16000D02*
D03*
D19*
X744000Y42000D02*
D03*
Y78000D02*
D03*
X856000Y42000D02*
D03*
Y78000D02*
D03*
D20*
X747250Y101000D02*
D03*
X761750D02*
D03*
X838250Y101250D02*
D03*
X852750D02*
D03*
D21*
X777250Y89500D02*
D03*
X783750D02*
D03*
X790250D02*
D03*
X796750D02*
D03*
X803250D02*
D03*
X809750D02*
D03*
X816250D02*
D03*
X822750D02*
D03*
X777250Y30500D02*
D03*
X783750D02*
D03*
X790250D02*
D03*
X796750D02*
D03*
X803250D02*
D03*
X809750D02*
D03*
X816250D02*
D03*
X822750D02*
D03*
D22*
X800000Y60000D02*
D03*
M02*
