%FSLAX44Y44*%
%MOMM*%
G71*
G01*
G75*
G04 Layer_Color=65535*
%ADD10R,0.9500X2.7500*%
%ADD11R,0.8000X0.9500*%
%ADD12R,0.9500X1.4500*%
%ADD13C,0.5000*%
%ADD14C,0.2500*%
%ADD15C,0.2000*%
%ADD16R,2.5000X2.5000*%
%ADD17C,2.5000*%
%ADD18C,0.6000*%
%ADD19R,3.7000X1.8000*%
%ADD20R,0.7500X0.9500*%
%ADD21O,0.4500X1.4000*%
%ADD22R,3.5800X2.9400*%
%ADD23C,0.1000*%
D14*
X799250Y95500D02*
X801250D01*
X799250Y83000D02*
X801250D01*
D15*
X21500Y88500D02*
X58500D01*
X21500Y51500D02*
X58500D01*
X179500Y88500D02*
X216500D01*
X179500Y51500D02*
X216500D01*
X258500Y88500D02*
X295500D01*
X258500Y51500D02*
X295500D01*
X337500Y88500D02*
X374500D01*
X337500Y51500D02*
X374500D01*
X416500Y88500D02*
X453500D01*
X416500Y51500D02*
X453500D01*
X495500Y88500D02*
X532500D01*
X495500Y51500D02*
X532500D01*
X574500Y88500D02*
X611500D01*
X574500Y51500D02*
X611500D01*
X653500Y88500D02*
X690500D01*
X653500Y51500D02*
X690500D01*
X732500Y88500D02*
X769500D01*
X732500Y51500D02*
X769500D01*
X100500Y88500D02*
X137500D01*
X100500Y51500D02*
X137500D01*
X1541500Y88500D02*
X1578500D01*
X1541500Y51500D02*
X1578500D01*
X1462500Y88500D02*
X1499500D01*
X1462500Y51500D02*
X1499500D01*
X1383500Y88500D02*
X1420500D01*
X1383500Y51500D02*
X1420500D01*
X1304500Y88500D02*
X1341500D01*
X1304500Y51500D02*
X1341500D01*
X1225500Y88500D02*
X1262500D01*
X1225500Y51500D02*
X1262500D01*
X1146500Y88500D02*
X1183500D01*
X1146500Y51500D02*
X1183500D01*
X1067500Y88500D02*
X1104500D01*
X1067500Y51500D02*
X1104500D01*
X988500Y88500D02*
X1025500D01*
X988500Y51500D02*
X1025500D01*
X909500Y88500D02*
X946500D01*
X909500Y51500D02*
X946500D01*
X830500Y88500D02*
X867500D01*
X830500Y51500D02*
X867500D01*
X799914Y73331D02*
X798248Y74997D01*
X794916D01*
X793250Y73331D01*
Y66666D01*
X794916Y65000D01*
X798248D01*
X799914Y66666D01*
X803247Y65000D02*
X806579D01*
X804913D01*
Y74997D01*
X803247Y73331D01*
X793250Y39000D02*
Y48997D01*
X798248D01*
X799914Y47331D01*
Y43998D01*
X798248Y42332D01*
X793250D01*
X796582D02*
X799914Y39000D01*
X803247D02*
X806579D01*
X804913D01*
Y48997D01*
X803247Y47331D01*
X33250Y105497D02*
Y95500D01*
X38248D01*
X39915Y97166D01*
Y103831D01*
X38248Y105497D01*
X33250D01*
X43247Y95500D02*
X46579D01*
X44913D01*
Y105497D01*
X43247Y103831D01*
X110750Y105497D02*
Y95500D01*
X115748D01*
X117415Y97166D01*
Y103831D01*
X115748Y105497D01*
X110750D01*
X127411Y95500D02*
X120747D01*
X127411Y102164D01*
Y103831D01*
X125745Y105497D01*
X122413D01*
X120747Y103831D01*
X189750Y105497D02*
Y95500D01*
X194748D01*
X196415Y97166D01*
Y103831D01*
X194748Y105497D01*
X189750D01*
X199747Y103831D02*
X201413Y105497D01*
X204745D01*
X206411Y103831D01*
Y102164D01*
X204745Y100498D01*
X203079D01*
X204745D01*
X206411Y98832D01*
Y97166D01*
X204745Y95500D01*
X201413D01*
X199747Y97166D01*
X268750Y105497D02*
Y95500D01*
X273748D01*
X275415Y97166D01*
Y103831D01*
X273748Y105497D01*
X268750D01*
X283745Y95500D02*
Y105497D01*
X278747Y100498D01*
X285411D01*
X347750Y105497D02*
Y95500D01*
X352748D01*
X354414Y97166D01*
Y103831D01*
X352748Y105497D01*
X347750D01*
X364411D02*
X357747D01*
Y100498D01*
X361079Y102164D01*
X362745D01*
X364411Y100498D01*
Y97166D01*
X362745Y95500D01*
X359413D01*
X357747Y97166D01*
X426750Y105497D02*
Y95500D01*
X431748D01*
X433414Y97166D01*
Y103831D01*
X431748Y105497D01*
X426750D01*
X443411D02*
X440079Y103831D01*
X436747Y100498D01*
Y97166D01*
X438413Y95500D01*
X441745D01*
X443411Y97166D01*
Y98832D01*
X441745Y100498D01*
X436747D01*
X505750Y105497D02*
Y95500D01*
X510748D01*
X512415Y97166D01*
Y103831D01*
X510748Y105497D01*
X505750D01*
X515747D02*
X522411D01*
Y103831D01*
X515747Y97166D01*
Y95500D01*
X584750Y105497D02*
Y95500D01*
X589748D01*
X591414Y97166D01*
Y103831D01*
X589748Y105497D01*
X584750D01*
X594747Y103831D02*
X596413Y105497D01*
X599745D01*
X601411Y103831D01*
Y102164D01*
X599745Y100498D01*
X601411Y98832D01*
Y97166D01*
X599745Y95500D01*
X596413D01*
X594747Y97166D01*
Y98832D01*
X596413Y100498D01*
X594747Y102164D01*
Y103831D01*
X596413Y100498D02*
X599745D01*
X663750Y105497D02*
Y95500D01*
X668748D01*
X670415Y97166D01*
Y103831D01*
X668748Y105497D01*
X663750D01*
X673747Y97166D02*
X675413Y95500D01*
X678745D01*
X680411Y97166D01*
Y103831D01*
X678745Y105497D01*
X675413D01*
X673747Y103831D01*
Y102164D01*
X675413Y100498D01*
X680411D01*
X738500Y105497D02*
Y95500D01*
X743498D01*
X745164Y97166D01*
Y103831D01*
X743498Y105497D01*
X738500D01*
X748497Y95500D02*
X751829D01*
X750163D01*
Y105497D01*
X748497Y103831D01*
X756827D02*
X758494Y105497D01*
X761826D01*
X763492Y103831D01*
Y97166D01*
X761826Y95500D01*
X758494D01*
X756827Y97166D01*
Y103831D01*
X836500Y105497D02*
Y95500D01*
X841498D01*
X843165Y97166D01*
Y103831D01*
X841498Y105497D01*
X836500D01*
X846497Y95500D02*
X849829D01*
X848163D01*
Y105497D01*
X846497Y103831D01*
X854827Y95500D02*
X858160D01*
X856494D01*
Y105497D01*
X854827Y103831D01*
X915500Y105497D02*
Y95500D01*
X920498D01*
X922165Y97166D01*
Y103831D01*
X920498Y105497D01*
X915500D01*
X925497Y95500D02*
X928829D01*
X927163D01*
Y105497D01*
X925497Y103831D01*
X940492Y95500D02*
X933827D01*
X940492Y102164D01*
Y103831D01*
X938826Y105497D01*
X935494D01*
X933827Y103831D01*
X994500Y105497D02*
Y95500D01*
X999498D01*
X1001164Y97166D01*
Y103831D01*
X999498Y105497D01*
X994500D01*
X1004497Y95500D02*
X1007829D01*
X1006163D01*
Y105497D01*
X1004497Y103831D01*
X1012827D02*
X1014494Y105497D01*
X1017826D01*
X1019492Y103831D01*
Y102164D01*
X1017826Y100498D01*
X1016160D01*
X1017826D01*
X1019492Y98832D01*
Y97166D01*
X1017826Y95500D01*
X1014494D01*
X1012827Y97166D01*
X1073500Y105497D02*
Y95500D01*
X1078498D01*
X1080164Y97166D01*
Y103831D01*
X1078498Y105497D01*
X1073500D01*
X1083497Y95500D02*
X1086829D01*
X1085163D01*
Y105497D01*
X1083497Y103831D01*
X1096826Y95500D02*
Y105497D01*
X1091827Y100498D01*
X1098492D01*
X1152500Y105497D02*
Y95500D01*
X1157498D01*
X1159165Y97166D01*
Y103831D01*
X1157498Y105497D01*
X1152500D01*
X1162497Y95500D02*
X1165829D01*
X1164163D01*
Y105497D01*
X1162497Y103831D01*
X1177492Y105497D02*
X1170827D01*
Y100498D01*
X1174160Y102164D01*
X1175826D01*
X1177492Y100498D01*
Y97166D01*
X1175826Y95500D01*
X1172494D01*
X1170827Y97166D01*
X1231500Y105497D02*
Y95500D01*
X1236498D01*
X1238165Y97166D01*
Y103831D01*
X1236498Y105497D01*
X1231500D01*
X1241497Y95500D02*
X1244829D01*
X1243163D01*
Y105497D01*
X1241497Y103831D01*
X1256492Y105497D02*
X1253160Y103831D01*
X1249827Y100498D01*
Y97166D01*
X1251494Y95500D01*
X1254826D01*
X1256492Y97166D01*
Y98832D01*
X1254826Y100498D01*
X1249827D01*
X1310500Y105497D02*
Y95500D01*
X1315498D01*
X1317164Y97166D01*
Y103831D01*
X1315498Y105497D01*
X1310500D01*
X1320497Y95500D02*
X1323829D01*
X1322163D01*
Y105497D01*
X1320497Y103831D01*
X1328827Y105497D02*
X1335492D01*
Y103831D01*
X1328827Y97166D01*
Y95500D01*
X1389500Y105497D02*
Y95500D01*
X1394498D01*
X1396165Y97166D01*
Y103831D01*
X1394498Y105497D01*
X1389500D01*
X1399497Y95500D02*
X1402829D01*
X1401163D01*
Y105497D01*
X1399497Y103831D01*
X1407827D02*
X1409494Y105497D01*
X1412826D01*
X1414492Y103831D01*
Y102164D01*
X1412826Y100498D01*
X1414492Y98832D01*
Y97166D01*
X1412826Y95500D01*
X1409494D01*
X1407827Y97166D01*
Y98832D01*
X1409494Y100498D01*
X1407827Y102164D01*
Y103831D01*
X1409494Y100498D02*
X1412826D01*
X1468500Y105497D02*
Y95500D01*
X1473498D01*
X1475164Y97166D01*
Y103831D01*
X1473498Y105497D01*
X1468500D01*
X1478497Y95500D02*
X1481829D01*
X1480163D01*
Y105497D01*
X1478497Y103831D01*
X1486827Y97166D02*
X1488494Y95500D01*
X1491826D01*
X1493492Y97166D01*
Y103831D01*
X1491826Y105497D01*
X1488494D01*
X1486827Y103831D01*
Y102164D01*
X1488494Y100498D01*
X1493492D01*
X1546750Y105497D02*
Y95500D01*
X1551748D01*
X1553414Y97166D01*
Y103831D01*
X1551748Y105497D01*
X1546750D01*
X1563411Y95500D02*
X1556747D01*
X1563411Y102164D01*
Y103831D01*
X1561745Y105497D01*
X1558413D01*
X1556747Y103831D01*
X1566744D02*
X1568410Y105497D01*
X1571742D01*
X1573408Y103831D01*
Y97166D01*
X1571742Y95500D01*
X1568410D01*
X1566744Y97166D01*
Y103831D01*
X718250Y25252D02*
X711585D01*
X714918Y21919D02*
Y28584D01*
X632500Y25252D02*
X625835D01*
D23*
X22000Y92500D02*
G03*
X22000Y92500I-500J0D01*
G01*
X180000D02*
G03*
X180000Y92500I-500J0D01*
G01*
X259000D02*
G03*
X259000Y92500I-500J0D01*
G01*
X338000D02*
G03*
X338000Y92500I-500J0D01*
G01*
X417000D02*
G03*
X417000Y92500I-500J0D01*
G01*
X496000D02*
G03*
X496000Y92500I-500J0D01*
G01*
X575000D02*
G03*
X575000Y92500I-500J0D01*
G01*
X654000D02*
G03*
X654000Y92500I-500J0D01*
G01*
X733000D02*
G03*
X733000Y92500I-500J0D01*
G01*
X101000D02*
G03*
X101000Y92500I-500J0D01*
G01*
X1542000D02*
G03*
X1542000Y92500I-500J0D01*
G01*
X1463000D02*
G03*
X1463000Y92500I-500J0D01*
G01*
X1384000D02*
G03*
X1384000Y92500I-500J0D01*
G01*
X1305000D02*
G03*
X1305000Y92500I-500J0D01*
G01*
X1226000D02*
G03*
X1226000Y92500I-500J0D01*
G01*
X1147000D02*
G03*
X1147000Y92500I-500J0D01*
G01*
X1068000D02*
G03*
X1068000Y92500I-500J0D01*
G01*
X989000D02*
G03*
X989000Y92500I-500J0D01*
G01*
X910000D02*
G03*
X910000Y92500I-500J0D01*
G01*
X831000D02*
G03*
X831000Y92500I-500J0D01*
G01*
M02*
