%FSLAX44Y44*%
%MOMM*%
G71*
G01*
G75*
G04 Layer_Color=16711935*
%ADD10R,0.9500X2.7500*%
%ADD11R,0.8000X0.9500*%
%ADD12R,0.9500X1.4500*%
%ADD13C,0.5000*%
%ADD14C,0.2500*%
%ADD15C,0.2000*%
%ADD16R,2.5000X2.5000*%
%ADD17C,2.5000*%
%ADD18C,0.6000*%
%ADD19R,3.7000X1.8000*%
%ADD20R,0.7500X0.9500*%
%ADD21O,0.4500X1.4000*%
%ADD22R,3.5800X2.9400*%
%ADD23C,0.1000*%
%ADD24R,1.1500X2.9500*%
%ADD25R,1.0000X1.1500*%
%ADD26R,1.1500X1.6500*%
%ADD27R,2.7000X2.7000*%
%ADD28C,2.7000*%
%ADD29C,0.2000*%
%ADD30C,0.8000*%
%ADD31R,3.9000X2.0000*%
%ADD32R,0.9500X1.1500*%
%ADD33O,0.6500X1.6000*%
%ADD34R,3.7800X3.1400*%
D25*
X838500Y18750D02*
D03*
X852000D02*
D03*
X761500Y18500D02*
D03*
X748000D02*
D03*
D27*
X692000Y25250D02*
D03*
D28*
X652000D02*
D03*
D29*
X1520000Y25000D02*
D03*
X80000D02*
D03*
X550000D02*
D03*
X1050000D02*
D03*
D30*
X822750Y16000D02*
D03*
D31*
X744000Y42000D02*
D03*
Y78000D02*
D03*
X856000Y42000D02*
D03*
Y78000D02*
D03*
D32*
X747250Y101000D02*
D03*
X761750D02*
D03*
X838250Y101250D02*
D03*
X852750D02*
D03*
D33*
X777250Y89500D02*
D03*
X783750D02*
D03*
X790250D02*
D03*
X796750D02*
D03*
X803250D02*
D03*
X809750D02*
D03*
X816250D02*
D03*
X822750D02*
D03*
X777250Y30500D02*
D03*
X783750D02*
D03*
X790250D02*
D03*
X796750D02*
D03*
X803250D02*
D03*
X809750D02*
D03*
X816250D02*
D03*
X822750D02*
D03*
D34*
X800000Y60000D02*
D03*
M02*
