%FSLAX44Y44*%
%MOMM*%
G71*
G01*
G75*
G04 Layer_Color=8388736*
%ADD10R,0.9500X2.7500*%
%ADD11R,0.8000X0.9500*%
%ADD12R,0.9500X1.4500*%
%ADD13C,0.5000*%
%ADD14C,0.2500*%
%ADD15C,0.2000*%
%ADD16R,2.5000X2.5000*%
%ADD17C,2.5000*%
%ADD18C,0.6000*%
%ADD19R,3.7000X1.8000*%
%ADD20R,0.7500X0.9500*%
%ADD21O,0.4500X1.4000*%
%ADD22R,3.5800X2.9400*%
%ADD23C,0.1000*%
%ADD24R,1.1500X2.9500*%
%ADD25R,1.0000X1.1500*%
%ADD26R,1.1500X1.6500*%
%ADD27R,2.7000X2.7000*%
%ADD28C,2.7000*%
%ADD29C,0.2000*%
%ADD30C,0.8000*%
D24*
X51500Y70000D02*
D03*
X28500D02*
D03*
X209500D02*
D03*
X186500D02*
D03*
X288500D02*
D03*
X265500D02*
D03*
X367500D02*
D03*
X344500D02*
D03*
X446500D02*
D03*
X423500D02*
D03*
X525500D02*
D03*
X502500D02*
D03*
X604500D02*
D03*
X581500D02*
D03*
X683500D02*
D03*
X660500D02*
D03*
X762500D02*
D03*
X739500D02*
D03*
X130500D02*
D03*
X107500D02*
D03*
X1571500D02*
D03*
X1548500D02*
D03*
X1492500D02*
D03*
X1469500D02*
D03*
X1413500D02*
D03*
X1390500D02*
D03*
X1334500D02*
D03*
X1311500D02*
D03*
X1255500D02*
D03*
X1232500D02*
D03*
X1176500D02*
D03*
X1153500D02*
D03*
X1097500D02*
D03*
X1074500D02*
D03*
X1018500D02*
D03*
X995500D02*
D03*
X939500D02*
D03*
X916500D02*
D03*
X860500D02*
D03*
X837500D02*
D03*
D25*
X806750Y27250D02*
D03*
X793250D02*
D03*
D26*
X790500Y89250D02*
D03*
X810000D02*
D03*
D27*
X692000Y25250D02*
D03*
D28*
X652000D02*
D03*
D29*
X1520000Y25000D02*
D03*
X80000D02*
D03*
X550000D02*
D03*
X1050000D02*
D03*
D30*
X822750Y16000D02*
D03*
X777250D02*
D03*
X813000D02*
D03*
X783750Y104000D02*
D03*
X816250D02*
D03*
X805250D02*
D03*
X794750D02*
D03*
X787000Y16000D02*
D03*
M02*
