%FSLAX44Y44*%
%MOMM*%
G71*
G01*
G75*
G04 Layer_Color=2752767*
%ADD10R,0.9500X2.7500*%
%ADD11R,0.8000X0.9500*%
%ADD12R,0.9500X1.4500*%
%ADD13C,0.5000*%
%ADD14C,0.2500*%
%ADD15C,0.2000*%
%ADD16R,2.5000X2.5000*%
%ADD17C,2.5000*%
%ADD18C,0.6000*%
%ADD19R,3.7000X1.8000*%
%ADD20R,0.7500X0.9500*%
%ADD21O,0.4500X1.4000*%
%ADD22R,3.5800X2.9400*%
%ADD23C,0.1000*%
%ADD24R,1.1500X2.9500*%
%ADD25R,1.0000X1.1500*%
%ADD26R,1.1500X1.6500*%
%ADD27R,2.7000X2.7000*%
%ADD28C,2.7000*%
%ADD29C,0.2000*%
%ADD30C,0.8000*%
%ADD31R,3.9000X2.0000*%
%ADD32R,0.9500X1.1500*%
%ADD33O,0.6500X1.6000*%
%ADD34R,3.7800X3.1400*%
%ADD35C,0.0127*%
%ADD36C,0.0152*%
%ADD37C,0.1270*%
%ADD38C,0.1693*%
D37*
X686920Y20170D02*
Y30330D01*
X697080D01*
Y20170D01*
X686920D01*
X646920D02*
Y30330D01*
X657080D01*
Y20170D01*
X646920D01*
X822750Y10920D02*
X817670Y21080D01*
X827830D01*
X822750Y10920D01*
X777250D02*
X772170Y21080D01*
X782330D01*
X777250Y10920D01*
X813000D02*
X807920Y21080D01*
X818080D01*
X813000Y10920D01*
X783750Y98920D02*
X778670Y109080D01*
X788830D01*
X783750Y98920D01*
X816250D02*
X811170Y109080D01*
X821330D01*
X816250Y98920D01*
X805250D02*
X800170Y109080D01*
X810330D01*
X805250Y98920D01*
X794750D02*
X789670Y109080D01*
X799830D01*
X794750Y98920D01*
X787000Y10920D02*
X781920Y21080D01*
X792080D01*
X787000Y10920D01*
D38*
X1525080Y25000D02*
G03*
X1525080Y25000I-5080J0D01*
G01*
X85080D02*
G03*
X85080Y25000I-5080J0D01*
G01*
X555080D02*
G03*
X555080Y25000I-5080J0D01*
G01*
X1055080D02*
G03*
X1055080Y25000I-5080J0D01*
G01*
M02*
