%FSLAX44Y44*%
%MOMM*%
G71*
G01*
G75*
G04 Layer_Physical_Order=1*
G04 Layer_Color=255*
%ADD10R,0.9500X2.7500*%
%ADD11R,0.8000X0.9500*%
%ADD12R,0.9500X1.4500*%
%ADD13C,0.5000*%
%ADD14C,0.2500*%
%ADD15C,0.2000*%
%ADD16R,2.5000X2.5000*%
%ADD17C,2.5000*%
%ADD18C,0.6000*%
D10*
X51500Y70000D02*
D03*
X28500D02*
D03*
X209500D02*
D03*
X186500D02*
D03*
X288500D02*
D03*
X265500D02*
D03*
X367500D02*
D03*
X344500D02*
D03*
X446500D02*
D03*
X423500D02*
D03*
X525500D02*
D03*
X502500D02*
D03*
X604500D02*
D03*
X581500D02*
D03*
X683500D02*
D03*
X660500D02*
D03*
X762500D02*
D03*
X739500D02*
D03*
X130500D02*
D03*
X107500D02*
D03*
X1571500D02*
D03*
X1548500D02*
D03*
X1492500D02*
D03*
X1469500D02*
D03*
X1413500D02*
D03*
X1390500D02*
D03*
X1334500D02*
D03*
X1311500D02*
D03*
X1255500D02*
D03*
X1232500D02*
D03*
X1176500D02*
D03*
X1153500D02*
D03*
X1097500D02*
D03*
X1074500D02*
D03*
X1018500D02*
D03*
X995500D02*
D03*
X939500D02*
D03*
X916500D02*
D03*
X860500D02*
D03*
X837500D02*
D03*
D11*
X806750Y27250D02*
D03*
X793250D02*
D03*
D12*
X790500Y89250D02*
D03*
X810000D02*
D03*
D13*
X822750Y16000D02*
X849000Y42250D01*
X762500Y30750D02*
X777250Y16000D01*
X762500Y30750D02*
Y70000D01*
X28500D02*
Y92250D01*
X40250Y104000D01*
X783750D01*
X51500Y70000D02*
X107500D01*
X130500D02*
X186500D01*
X209500D02*
X265500D01*
X288500D02*
X344500D01*
X367500D02*
X423500D01*
X446500D02*
X502500D01*
X525500D02*
X581500D01*
X604500D02*
X660500D01*
X683500D02*
X739500D01*
X816250Y104000D02*
X824750D01*
X837500Y91250D01*
Y70000D02*
Y91250D01*
X849000Y42250D02*
Y91250D01*
X861750Y104000D01*
X1559750D01*
X1571500Y92250D01*
Y70000D02*
Y92250D01*
X1492500Y70000D02*
X1548500D01*
X1413500D02*
X1469500D01*
X1334500D02*
X1390500D01*
X1255500D02*
X1311500D01*
X1176500D02*
X1232500D01*
X1097500D02*
X1153500D01*
X1018500D02*
X1074500D01*
X939500D02*
X995500D01*
X860500D02*
X916500D01*
D14*
X810000Y80250D02*
Y89250D01*
X813000Y16000D02*
Y21000D01*
X806750Y27250D02*
X813000Y21000D01*
X787000Y16000D02*
Y21000D01*
X793250Y27250D01*
X790500Y99750D02*
X794750Y104000D01*
X790500Y89250D02*
Y99750D01*
X805250Y104000D02*
X810000Y99250D01*
Y89250D02*
Y99250D01*
X807750Y78000D02*
X810000Y80250D01*
X751000Y37000D02*
Y82750D01*
X755500Y87250D01*
X771500D01*
X780750Y78000D01*
X807750D01*
X692000Y25250D02*
X739250D01*
X751000Y37000D01*
D15*
X116000Y40497D02*
Y32166D01*
X117666Y30500D01*
X120998D01*
X122664Y32166D01*
Y40497D01*
X125997D02*
Y30500D01*
X130995D01*
X132661Y32166D01*
Y33832D01*
X130995Y35498D01*
X125997D01*
X130995D01*
X132661Y37164D01*
Y38831D01*
X130995Y40497D01*
X125997D01*
X142658Y38831D02*
X140992Y40497D01*
X137660D01*
X135994Y38831D01*
Y32166D01*
X137660Y30500D01*
X140992D01*
X142658Y32166D01*
X162652Y40497D02*
X155987D01*
Y35498D01*
X159319D01*
X155987D01*
Y30500D01*
X167650D02*
X170982D01*
X172648Y32166D01*
Y35498D01*
X170982Y37164D01*
X167650D01*
X165984Y35498D01*
Y32166D01*
X167650Y30500D01*
X175981Y37164D02*
Y30500D01*
Y33832D01*
X177647Y35498D01*
X179313Y37164D01*
X180979D01*
X185977Y30500D02*
Y37164D01*
X187644D01*
X189310Y35498D01*
Y30500D01*
Y35498D01*
X190976Y37164D01*
X192642Y35498D01*
Y30500D01*
X195974Y37164D02*
Y32166D01*
X197640Y30500D01*
X202639D01*
Y37164D01*
X205971Y30500D02*
X209303D01*
X207637D01*
Y40497D01*
X205971D01*
X215968Y37164D02*
X219300D01*
X220966Y35498D01*
Y30500D01*
X215968D01*
X214302Y32166D01*
X215968Y33832D01*
X220966D01*
X240960Y40497D02*
X234295D01*
Y30500D01*
X240960D01*
X234295Y35498D02*
X237628D01*
X244292Y30500D02*
X247624D01*
X245958D01*
Y40497D01*
X244292D01*
X257621Y30500D02*
X254289D01*
X252623Y32166D01*
Y35498D01*
X254289Y37164D01*
X257621D01*
X259287Y35498D01*
Y33832D01*
X252623D01*
X269284Y37164D02*
X264286D01*
X262619Y35498D01*
Y32166D01*
X264286Y30500D01*
X269284D01*
X274282Y38831D02*
Y37164D01*
X272616D01*
X275948D01*
X274282D01*
Y32166D01*
X275948Y30500D01*
X280947Y37164D02*
Y30500D01*
Y33832D01*
X282613Y35498D01*
X284279Y37164D01*
X285945D01*
X290944Y30500D02*
X294276D01*
X292610D01*
Y37164D01*
X290944D01*
X305939D02*
X300940D01*
X299274Y35498D01*
Y32166D01*
X300940Y30500D01*
X305939D01*
X325932D02*
X319268D01*
X325932Y37164D01*
Y38831D01*
X324266Y40497D01*
X320934D01*
X319268Y38831D01*
X329265D02*
X330931Y40497D01*
X334263D01*
X335929Y38831D01*
Y32166D01*
X334263Y30500D01*
X330931D01*
X329265Y32166D01*
Y38831D01*
X339261Y30500D02*
X342594D01*
X340928D01*
Y40497D01*
X339261Y38831D01*
X354257Y40497D02*
X350924Y38831D01*
X347592Y35498D01*
Y32166D01*
X349258Y30500D01*
X352590D01*
X354257Y32166D01*
Y33832D01*
X352590Y35498D01*
X347592D01*
X116000Y18497D02*
Y8500D01*
X122664D01*
X125997D02*
X129329D01*
X127663D01*
Y15165D01*
X125997D01*
X140992D02*
X135994D01*
X134327Y13498D01*
Y10166D01*
X135994Y8500D01*
X140992D01*
X149323D02*
X145990D01*
X144324Y10166D01*
Y13498D01*
X145990Y15165D01*
X149323D01*
X150989Y13498D01*
Y11832D01*
X144324D01*
X154321Y8500D02*
Y15165D01*
X159319D01*
X160986Y13498D01*
Y8500D01*
X164318D02*
X169316D01*
X170982Y10166D01*
X169316Y11832D01*
X165984D01*
X164318Y13498D01*
X165984Y15165D01*
X170982D01*
X179313Y8500D02*
X175981D01*
X174314Y10166D01*
Y13498D01*
X175981Y15165D01*
X179313D01*
X180979Y13498D01*
Y11832D01*
X174314D01*
X190976Y18497D02*
Y8500D01*
X185977D01*
X184311Y10166D01*
Y13498D01*
X185977Y15165D01*
X190976D01*
X204305D02*
Y10166D01*
X205971Y8500D01*
X210969D01*
Y15165D01*
X214302Y8500D02*
Y15165D01*
X219300D01*
X220966Y13498D01*
Y8500D01*
X230963Y18497D02*
Y8500D01*
X225965D01*
X224298Y10166D01*
Y13498D01*
X225965Y15165D01*
X230963D01*
X239294Y8500D02*
X235961D01*
X234295Y10166D01*
Y13498D01*
X235961Y15165D01*
X239294D01*
X240960Y13498D01*
Y11832D01*
X234295D01*
X244292Y15165D02*
Y8500D01*
Y11832D01*
X245958Y13498D01*
X247624Y15165D01*
X249290D01*
X270950Y16831D02*
X269284Y18497D01*
X265952D01*
X264286Y16831D01*
Y10166D01*
X265952Y8500D01*
X269284D01*
X270950Y10166D01*
X280947Y18497D02*
X274282D01*
Y8500D01*
X280947D01*
X274282Y13498D02*
X277615D01*
X284279Y8500D02*
Y18497D01*
X289277D01*
X290944Y16831D01*
Y13498D01*
X289277Y11832D01*
X284279D01*
X287611D02*
X290944Y8500D01*
X294276D02*
Y18497D01*
X300940Y8500D01*
Y18497D01*
X319268D02*
X315936D01*
X314270Y16831D01*
Y10166D01*
X315936Y8500D01*
X319268D01*
X320934Y10166D01*
Y16831D01*
X319268Y18497D01*
X324266D02*
Y8500D01*
Y13498D01*
X330931D01*
Y18497D01*
Y8500D01*
X334263Y18497D02*
Y8500D01*
X340928D01*
X354257Y15165D02*
X357589Y8500D01*
X360921Y15165D01*
X364253Y8500D02*
Y10166D01*
X365919D01*
Y8500D01*
X364253D01*
X372584D02*
X375916D01*
X374250D01*
Y18497D01*
X372584Y16831D01*
X380915Y8500D02*
Y10166D01*
X382581D01*
Y8500D01*
X380915D01*
X395910D02*
X389245D01*
X395910Y15165D01*
Y16831D01*
X394244Y18497D01*
X390911D01*
X389245Y16831D01*
D16*
X692000Y25250D02*
D03*
D17*
X652000D02*
D03*
D18*
X822750Y16000D02*
D03*
X777250D02*
D03*
X813000D02*
D03*
X783750Y104000D02*
D03*
X816250D02*
D03*
X805250D02*
D03*
X794750D02*
D03*
X787000Y16000D02*
D03*
M02*
